<svg version="1.1" id="Layer_1" xmlns="http://www.w3.org/2000/svg" xmlns:xlink="http://www.w3.org/1999/xlink" x="0px" y="0px"
	 width="100%" viewBox="0 0 512 512" enable-background="new 0 0 512 512" xml:space="preserve">
<path fill="#3A3E54" opacity="1.000000" stroke="none" 
	d="
M329.000000,513.000000 
	C219.359970,513.000000 110.219933,513.000000 1.039949,513.000000 
	C1.039949,342.401611 1.039949,171.803207 1.039949,1.102403 
	C171.556702,1.102403 342.113495,1.102403 512.835144,1.102403 
	C512.835144,171.666534 512.835144,342.333252 512.835144,513.000000 
	C451.803192,513.000000 390.651581,513.000000 329.000000,513.000000 
M340.692261,338.006561 
	C352.030029,338.553467 362.587921,337.132629 370.736664,327.860260 
	C376.777283,320.986725 383.271301,314.509491 389.610992,307.901398 
	C398.951447,298.165527 408.435944,288.565796 417.671112,278.731567 
	C427.331238,268.444824 427.964630,255.217667 418.477539,245.042969 
	C401.558868,226.897964 384.173279,209.184845 366.813019,191.457520 
	C362.604858,187.160416 357.077087,185.089767 350.976135,185.042831 
	C342.977356,184.981277 334.936005,184.539230 326.994415,185.216125 
	C322.375854,185.609772 317.503265,187.155670 313.486450,189.470032 
	C307.990387,192.636703 307.655121,192.920334 306.433960,186.547562 
	C303.926910,173.464447 301.551178,160.355042 298.913574,147.298431 
	C296.774994,136.712006 289.082153,129.385712 279.105804,129.161743 
	C263.615723,128.814026 248.106628,128.837021 232.615814,129.173508 
	C223.145111,129.379227 215.354660,135.544266 212.890152,144.235931 
	C211.258286,149.991135 210.130508,155.900360 208.996552,161.782944 
	C207.484482,169.627029 206.209045,177.516449 204.784668,185.377808 
	C204.113312,189.083130 202.220642,189.655731 198.643860,188.435257 
	C194.002090,186.851379 189.121460,185.565796 184.256805,185.137024 
	C177.972839,184.583145 171.589401,185.267090 165.273407,184.941071 
	C155.985229,184.461639 148.864548,188.546249 142.739883,194.901398 
	C128.296265,209.888519 113.911873,224.932861 99.541039,239.989868 
	C97.476097,242.153412 95.487343,244.416199 93.689102,246.803162 
	C86.340118,256.558044 86.947586,268.894714 95.401855,277.821289 
	C110.287262,293.538208 125.579361,308.879364 140.166595,324.865631 
	C148.650330,334.163055 158.337234,338.954498 171.000946,338.106689 
	C176.954010,337.708191 177.555862,338.875580 176.963211,344.842285 
	C176.273270,351.788544 175.120758,358.749390 175.178391,365.695526 
	C175.270737,376.822327 183.663620,384.771637 194.690002,384.965088 
	C201.187546,385.079071 207.688904,385.032013 214.188034,384.985779 
	C224.242279,384.914276 231.049561,380.346283 234.123840,370.732056 
	C236.195297,364.253937 237.532120,357.514618 238.833725,350.821381 
	C243.792389,325.322357 248.591324,299.792236 253.501404,274.283661 
	C253.775528,272.859589 254.511978,271.524475 255.033234,270.147949 
	C256.688080,271.689575 257.255402,273.029877 257.536713,274.427734 
	C259.014557,281.771881 260.467255,289.121796 261.841980,296.485901 
	C266.028900,318.914825 270.116791,341.362427 274.359802,363.780670 
	C277.140808,378.474274 285.097839,384.997162 299.859680,384.999664 
	C304.859283,385.000519 309.859131,385.025940 314.858490,384.990814 
	C328.311646,384.896271 337.284790,375.188293 336.158630,361.636383 
	C335.718719,356.342560 334.797394,351.068695 333.774292,345.848663 
	C332.595917,339.836487 333.417084,338.584351 340.692261,338.006561 
z"/>
<path fill="#3A3D53" opacity="1.000000" stroke="none" 
	d="
M340.231598,338.011841 
	C333.417084,338.584351 332.595917,339.836487 333.774292,345.848663 
	C334.797394,351.068695 335.718719,356.342560 336.158630,361.636383 
	C337.284790,375.188293 328.311646,384.896271 314.858490,384.990814 
	C309.859131,385.025940 304.859283,385.000519 299.859680,384.999664 
	C285.097839,384.997162 277.140808,378.474274 274.359802,363.780670 
	C270.116791,341.362427 266.028900,318.914825 261.841980,296.485901 
	C260.467255,289.121796 259.014557,281.771881 257.536713,274.427734 
	C257.255402,273.029877 256.688080,271.689575 255.033234,270.147949 
	C254.511978,271.524475 253.775528,272.859589 253.501404,274.283661 
	C248.591324,299.792236 243.792389,325.322357 238.833725,350.821381 
	C237.532120,357.514618 236.195297,364.253937 234.123840,370.732056 
	C231.049561,380.346283 224.242279,384.914276 214.188034,384.985779 
	C207.688904,385.032013 201.187546,385.079071 194.690002,384.965088 
	C183.663620,384.771637 175.270737,376.822327 175.178391,365.695526 
	C175.120758,358.749390 176.273270,351.788544 176.963211,344.842285 
	C177.555862,338.875580 176.954010,337.708191 171.000946,338.106689 
	C158.337234,338.954498 148.650330,334.163055 140.166595,324.865631 
	C125.579361,308.879364 110.287262,293.538208 95.401855,277.821289 
	C86.947586,268.894714 86.340118,256.558044 93.689102,246.803162 
	C95.487343,244.416199 97.476097,242.153412 99.541039,239.989868 
	C113.911873,224.932861 128.296265,209.888519 142.739883,194.901398 
	C148.864548,188.546249 155.985229,184.461639 165.273407,184.941071 
	C171.589401,185.267090 177.972839,184.583145 184.256805,185.137024 
	C189.121460,185.565796 194.002090,186.851379 198.643860,188.435257 
	C202.220642,189.655731 204.113312,189.083130 204.784668,185.377808 
	C206.209045,177.516449 207.484482,169.627029 208.996552,161.782944 
	C210.130508,155.900360 211.258286,149.991135 212.890152,144.235931 
	C215.354660,135.544266 223.145111,129.379227 232.615814,129.173508 
	C248.106628,128.837021 263.615723,128.814026 279.105804,129.161743 
	C289.082153,129.385712 296.774994,136.712006 298.913574,147.298431 
	C301.551178,160.355042 303.926910,173.464447 306.433960,186.547562 
	C307.655121,192.920334 307.990387,192.636703 313.486450,189.470032 
	C317.503265,187.155670 322.375854,185.609772 326.994415,185.216125 
	C334.936005,184.539230 342.977356,184.981277 350.976135,185.042831 
	C357.077087,185.089767 362.604858,187.160416 366.813019,191.457520 
	C384.173279,209.184845 401.558868,226.897964 418.477539,245.042969 
	C427.964630,255.217667 427.331238,268.444824 417.671112,278.731567 
	C408.435944,288.565796 398.951447,298.165527 389.610992,307.901398 
	C383.271301,314.509491 376.777283,320.986725 370.736664,327.860260 
	C362.587921,337.132629 352.030029,338.553467 340.231598,338.011841 
M250.829102,269.370850 
	C251.929871,264.518219 253.030624,259.665619 254.131393,254.813004 
	C254.878082,254.821136 255.624786,254.829269 256.371490,254.837402 
	C257.192627,257.549164 258.259583,260.213104 258.797363,262.979950 
	C265.154419,295.686829 271.410889,328.413269 277.766113,361.120483 
	C278.366852,364.212128 278.805603,367.642242 280.473175,370.147339 
	C282.953644,373.873596 285.965363,377.673248 289.640961,380.085907 
	C296.759613,384.758606 305.171997,383.245239 313.059113,382.759735 
	C327.172943,381.891022 334.790436,371.609802 332.426605,357.648041 
	C331.537476,352.396515 330.733948,347.124847 330.102783,341.837097 
	C329.565796,337.338654 331.498169,334.856964 336.317230,335.007080 
	C339.645905,335.110779 342.981720,334.957672 346.313202,335.003448 
	C354.580444,335.117096 361.516388,332.341034 367.305634,326.263916 
	C378.790802,314.207825 390.544006,302.407410 402.062439,290.382507 
	C407.584930,284.617188 413.181488,278.860992 418.099487,272.594452 
	C423.834717,265.286530 423.480286,256.649902 417.826660,249.560455 
	C415.029053,246.052277 412.013184,242.701904 408.916138,239.451553 
	C395.250153,225.108841 381.589661,210.759491 367.774078,196.561508 
	C362.662720,191.308655 356.723267,187.605743 348.837463,187.940659 
	C341.685638,188.244385 334.510590,187.960754 327.346832,188.036423 
	C319.854431,188.115555 314.402679,191.745514 310.543854,198.006226 
	C309.546539,199.624313 308.544098,201.239227 307.544037,202.855606 
	C307.062500,202.826584 306.580994,202.797562 306.099457,202.768539 
	C305.475769,200.323288 304.695221,197.905975 304.254272,195.428207 
	C301.714722,181.158340 299.307831,166.864807 296.754486,152.597458 
	C294.160400,138.102356 287.167175,132.165863 272.463806,132.026764 
	C261.170654,131.919922 249.875504,131.954346 238.581711,132.013245 
	C223.851440,132.090057 216.552139,138.513977 214.163055,153.003571 
	C212.049347,165.823074 209.732452,178.609909 207.384537,191.388992 
	C207.042892,193.248489 206.028580,194.984390 205.325546,196.777481 
	C203.683960,195.823471 201.811310,195.121658 200.443741,193.868591 
	C196.188004,189.969208 191.386597,187.840393 185.531311,187.975021 
	C179.369797,188.116653 173.181808,188.321136 167.042542,187.923798 
	C158.322586,187.359467 151.500854,190.852417 145.677200,196.851257 
	C138.023788,204.734879 130.463150,212.708557 122.859016,220.640076 
	C114.678398,229.172897 106.411667,237.625015 98.332748,246.253021 
	C89.557701,255.624481 89.460129,266.384064 98.242355,275.692230 
	C112.979897,291.312378 128.234238,306.457336 142.639404,322.373993 
	C151.021225,331.635254 160.449860,336.212769 173.003601,335.132599 
	C180.120850,334.520233 181.618149,336.566528 180.775986,343.639679 
	C180.126465,349.094604 178.928619,354.483704 178.261185,359.937164 
	C177.069260,369.676086 180.769226,377.392944 189.533844,380.465424 
	C195.157974,382.436981 201.536087,382.780212 207.593735,382.890442 
	C223.066360,383.171906 229.966034,377.614685 232.948914,362.466400 
	C238.998535,331.743927 244.775558,300.967773 250.829102,269.370850 
z"/>
<path fill="#3C3B50" opacity="1.000000" stroke="none" 
	d="
M250.747025,269.792297 
	C244.775558,300.967773 238.998535,331.743927 232.948914,362.466400 
	C229.966034,377.614685 223.066360,383.171906 207.593735,382.890442 
	C201.536087,382.780212 195.157974,382.436981 189.533844,380.465424 
	C180.769226,377.392944 177.069260,369.676086 178.261185,359.937164 
	C178.928619,354.483704 180.126465,349.094604 180.775986,343.639679 
	C181.618149,336.566528 180.120850,334.520233 173.003601,335.132599 
	C160.449860,336.212769 151.021225,331.635254 142.639404,322.373993 
	C128.234238,306.457336 112.979897,291.312378 98.242355,275.692230 
	C89.460129,266.384064 89.557701,255.624481 98.332748,246.253021 
	C106.411667,237.625015 114.678398,229.172897 122.859016,220.640076 
	C130.463150,212.708557 138.023788,204.734879 145.677200,196.851257 
	C151.500854,190.852417 158.322586,187.359467 167.042542,187.923798 
	C173.181808,188.321136 179.369797,188.116653 185.531311,187.975021 
	C191.386597,187.840393 196.188004,189.969208 200.443741,193.868591 
	C201.811310,195.121658 203.683960,195.823471 205.325546,196.777481 
	C206.028580,194.984390 207.042892,193.248489 207.384537,191.388992 
	C209.732452,178.609909 212.049347,165.823074 214.163055,153.003571 
	C216.552139,138.513977 223.851440,132.090057 238.581711,132.013245 
	C249.875504,131.954346 261.170654,131.919922 272.463806,132.026764 
	C287.167175,132.165863 294.160400,138.102356 296.754486,152.597458 
	C299.307831,166.864807 301.714722,181.158340 304.254272,195.428207 
	C304.695221,197.905975 305.475769,200.323288 306.099457,202.768539 
	C306.580994,202.797562 307.062500,202.826584 307.544037,202.855606 
	C308.544098,201.239227 309.546539,199.624313 310.543854,198.006226 
	C314.402679,191.745514 319.854431,188.115555 327.346832,188.036423 
	C334.510590,187.960754 341.685638,188.244385 348.837463,187.940659 
	C356.723267,187.605743 362.662720,191.308655 367.774078,196.561508 
	C381.589661,210.759491 395.250153,225.108841 408.916138,239.451553 
	C412.013184,242.701904 415.029053,246.052277 417.826660,249.560455 
	C423.480286,256.649902 423.834717,265.286530 418.099487,272.594452 
	C413.181488,278.860992 407.584930,284.617188 402.062439,290.382507 
	C390.544006,302.407410 378.790802,314.207825 367.305634,326.263916 
	C361.516388,332.341034 354.580444,335.117096 346.313202,335.003448 
	C342.981720,334.957672 339.645905,335.110779 336.317230,335.007080 
	C331.498169,334.856964 329.565796,337.338654 330.102783,341.837097 
	C330.733948,347.124847 331.537476,352.396515 332.426605,357.648041 
	C334.790436,371.609802 327.172943,381.891022 313.059113,382.759735 
	C305.171997,383.245239 296.759613,384.758606 289.640961,380.085907 
	C285.965363,377.673248 282.953644,373.873596 280.473175,370.147339 
	C278.805603,367.642242 278.366852,364.212128 277.766113,361.120483 
	C271.410889,328.413269 265.154419,295.686829 258.797363,262.979950 
	C258.259583,260.213104 257.192627,257.549164 256.371490,254.837402 
	C255.624786,254.829269 254.878082,254.821136 254.131393,254.813004 
	C253.030624,259.665619 251.929871,264.518219 250.747025,269.792297 
M322.843719,329.042145 
	C332.794434,329.152802 342.769196,329.689209 352.682037,329.129150 
	C355.889801,328.947937 359.251282,326.276855 361.973816,324.049652 
	C365.300018,321.328644 368.009674,317.858551 371.017365,314.742798 
	C384.548157,300.725891 398.098602,286.727936 411.624725,272.706543 
	C419.466553,264.577606 419.515961,258.221802 411.829041,250.212189 
	C395.455231,233.151016 379.008118,216.159348 362.741638,198.996506 
	C358.798340,194.835922 354.440430,192.711838 348.653351,192.957169 
	C342.167877,193.232101 335.657715,193.163284 329.165741,192.980377 
	C322.585083,192.794968 317.190033,194.727203 314.549316,201.122833 
	C311.920563,207.489487 314.447510,212.687393 318.992218,217.328949 
	C328.895233,227.443024 338.691803,237.661407 348.516815,247.851685 
	C352.765778,252.258591 356.977478,256.701385 361.493622,261.428833 
	C346.768494,276.538025 332.376556,291.305328 317.737488,305.453552 
	C317.431854,304.620819 317.126221,303.788055 316.894287,302.136749 
	C316.113556,297.215424 315.397858,292.282776 314.541534,287.374634 
	C309.003723,255.632462 303.425781,223.897278 297.881042,192.156296 
	C295.394745,177.923355 293.083435,163.658401 290.442596,149.454483 
	C288.997894,141.683914 284.476318,137.924255 276.531189,137.830231 
	C267.712555,137.725876 258.888611,138.071838 249.258835,137.936417 
	C247.844925,137.942902 246.431030,137.949387 244.089249,137.831802 
	C241.256927,137.801682 238.423355,137.702988 235.592499,137.754059 
	C226.386337,137.920212 222.044601,141.214691 220.342529,150.251465 
	C217.666962,164.456787 215.436188,178.745361 212.945282,192.986130 
	C209.080597,215.080902 205.077194,237.151672 201.283432,259.258514 
	C198.725998,274.161102 196.428406,289.108337 193.428726,303.705048 
	C179.782623,289.677521 166.136520,275.649994 151.365524,260.466125 
	C155.143616,257.208832 158.630936,254.614090 161.630615,251.543060 
	C173.256577,239.640442 184.768967,227.625824 196.233170,215.566910 
	C200.243561,211.348480 201.491119,206.335098 199.054230,200.858185 
	C196.635910,195.423050 192.235779,192.975647 186.330032,193.010727 
	C178.839630,193.055252 171.347397,193.108597 163.858643,192.988968 
	C159.248108,192.915298 155.485229,194.435455 152.289200,197.769272 
	C135.131973,215.666107 117.871964,233.464691 100.764458,251.408737 
	C94.698631,257.771149 94.864510,264.962708 100.958801,271.319366 
	C117.887016,288.976440 134.916153,306.537048 151.792831,324.243073 
	C155.519806,328.153168 159.931595,329.808807 165.140518,329.817322 
	C173.130173,329.830353 181.119919,329.801331 189.083893,330.643005 
	C187.223068,340.946655 185.195831,351.223877 183.552521,361.562103 
	C182.163361,370.301392 187.974487,376.973694 196.792572,377.132721 
	C202.290176,377.231903 207.792664,377.230743 213.290100,377.125122 
	C220.218369,376.992004 225.301529,372.771759 226.633347,365.937836 
	C229.555923,350.941345 232.337616,335.917480 235.221069,320.913300 
	C239.045609,301.012329 242.995102,281.134949 246.732498,261.217712 
	C249.306183,247.502014 251.611099,233.735901 254.414597,219.481506 
	C254.915634,218.372711 255.416656,217.263916 255.979980,216.962219 
	C259.992981,237.986069 264.027374,259.005859 268.013702,280.034790 
	C273.421753,308.563293 278.754272,337.106171 284.206543,365.626190 
	C285.612518,372.980682 290.743835,377.049622 298.302094,377.134766 
	C303.626770,377.194733 308.954529,377.229614 314.277679,377.119415 
	C322.403168,376.951172 328.379272,370.865753 327.324799,362.892883 
	C325.956451,352.546967 323.745026,342.312592 321.997040,331.278168 
	C321.998810,330.519989 322.000580,329.761841 322.843719,329.042145 
M328.483673,288.013092 
	C335.364319,280.789673 342.188507,273.511230 349.151184,266.367767 
	C352.296051,263.141266 352.302277,259.973236 349.639313,256.608063 
	C348.506836,255.177002 347.261932,253.827652 345.995483,252.511047 
	C337.119049,243.283325 328.231781,234.065979 319.329987,224.862701 
	C316.102814,221.526230 312.826447,218.237366 309.572510,214.926788 
	C308.493469,217.036011 308.283752,218.503708 308.524811,219.893219 
	C312.335358,241.858673 316.139374,263.825714 320.097900,285.764801 
	C321.297913,292.415680 322.911102,292.862366 328.483673,288.013092 
M163.157089,258.784912 
	C163.622025,261.189636 163.305481,264.261505 164.688919,265.882141 
	C170.296158,272.450836 176.317902,278.681824 182.436722,284.786774 
	C184.029800,286.376251 186.527222,287.059326 188.609283,288.158722 
	C189.561584,286.136230 191.002274,284.202759 191.389587,282.077332 
	C194.763428,263.562622 197.985809,245.019806 201.124832,226.463654 
	C201.400574,224.833725 200.762985,223.049316 200.549606,221.336655 
	C199.018799,222.074127 197.111069,222.453018 196.015549,223.604614 
	C185.119843,235.057922 174.358292,246.638855 163.157089,258.784912 
z"/>
<path fill="#3398FE" opacity="1.000000" stroke="none" 
	d="
M250.066956,138.221725 
	C258.888611,138.071838 267.712555,137.725876 276.531189,137.830231 
	C284.476318,137.924255 288.997894,141.683914 290.442596,149.454483 
	C293.083435,163.658401 295.394745,177.923355 297.881042,192.156296 
	C303.425781,223.897278 309.003723,255.632462 314.541534,287.374634 
	C315.397858,292.282776 316.113556,297.215424 316.565582,302.698364 
	C310.338898,307.889893 308.864624,314.182068 310.607941,320.986328 
	C312.054474,326.632233 315.511475,331.034149 321.896545,332.030182 
	C323.745026,342.312592 325.956451,352.546967 327.324799,362.892883 
	C328.379272,370.865753 322.403168,376.951172 314.277679,377.119415 
	C308.954529,377.229614 303.626770,377.194733 298.302094,377.134766 
	C290.743835,377.049622 285.612518,372.980682 284.206543,365.626190 
	C278.754272,337.106171 273.421753,308.563293 268.013702,280.034790 
	C264.027374,259.005859 259.992981,237.986069 255.888214,216.160248 
	C252.447769,197.941483 249.318390,180.478455 245.660599,163.126816 
	C243.748108,154.054459 242.462845,145.447739 250.066956,138.221725 
z"/>
<path fill="#3398FD" opacity="1.000000" stroke="none" 
	d="
M194.014557,304.035583 
	C196.428406,289.108337 198.725998,274.161102 201.283432,259.258514 
	C205.077194,237.151672 209.080597,215.080902 212.945282,192.986130 
	C215.436188,178.745361 217.666962,164.456787 220.342529,150.251465 
	C222.044601,141.214691 226.386337,137.920212 235.592499,137.754059 
	C238.423355,137.702988 241.256927,137.801682 244.431213,138.224976 
	C241.315567,144.095657 239.124100,149.818787 240.435532,156.516235 
	C244.263184,176.063751 247.939072,195.641037 251.785156,215.184860 
	C252.116730,216.869751 253.266464,218.393646 254.036133,219.992325 
	C251.611099,233.735901 249.306183,247.502014 246.732498,261.217712 
	C242.995102,281.134949 239.045609,301.012329 235.221069,320.913300 
	C232.337616,335.917480 229.555923,350.941345 226.633347,365.937836 
	C225.301529,372.771759 220.218369,376.992004 213.290100,377.125122 
	C207.792664,377.230743 202.290176,377.231903 196.792572,377.132721 
	C187.974487,376.973694 182.163361,370.301392 183.552521,361.562103 
	C185.195831,351.223877 187.223068,340.946655 189.369812,330.034241 
	C201.052124,323.325562 202.601929,317.281128 195.518860,306.623993 
	C194.967468,305.794403 194.513687,304.899933 194.014557,304.035583 
z"/>
<path fill="#3398FE" opacity="1.000000" stroke="none" 
	d="
M317.984619,306.072662 
	C332.376556,291.305328 346.768494,276.538025 361.493622,261.428833 
	C356.977478,256.701385 352.765778,252.258591 348.516815,247.851685 
	C338.691803,237.661407 328.895233,227.443024 318.992218,217.328949 
	C314.447510,212.687393 311.920563,207.489487 314.549316,201.122833 
	C317.190033,194.727203 322.585083,192.794968 329.165741,192.980377 
	C335.657715,193.163284 342.167877,193.232101 348.653351,192.957169 
	C354.440430,192.711838 358.798340,194.835922 362.741638,198.996506 
	C379.008118,216.159348 395.455231,233.151016 411.829041,250.212189 
	C419.515961,258.221802 419.466553,264.577606 411.624725,272.706543 
	C398.098602,286.727936 384.548157,300.725891 371.017365,314.742798 
	C368.009674,317.858551 365.300018,321.328644 361.973816,324.049652 
	C359.251282,326.276855 355.889801,328.947937 352.682037,329.129150 
	C342.769196,329.689209 332.794434,329.152802 322.164978,328.807922 
	C312.643036,322.416626 311.638092,315.959015 317.984619,306.072662 
z"/>
<path fill="#3399FE" opacity="1.000000" stroke="none" 
	d="
M193.721634,303.870300 
	C194.513687,304.899933 194.967468,305.794403 195.518860,306.623993 
	C202.601929,317.281128 201.052124,323.325562 189.382690,329.607788 
	C181.119919,329.801331 173.130173,329.830353 165.140518,329.817322 
	C159.931595,329.808807 155.519806,328.153168 151.792831,324.243073 
	C134.916153,306.537048 117.887016,288.976440 100.958801,271.319366 
	C94.864510,264.962708 94.698631,257.771149 100.764458,251.408737 
	C117.871964,233.464691 135.131973,215.666107 152.289200,197.769272 
	C155.485229,194.435455 159.248108,192.915298 163.858643,192.988968 
	C171.347397,193.108597 178.839630,193.055252 186.330032,193.010727 
	C192.235779,192.975647 196.635910,195.423050 199.054230,200.858185 
	C201.491119,206.335098 200.243561,211.348480 196.233170,215.566910 
	C184.768967,227.625824 173.256577,239.640442 161.630615,251.543060 
	C158.630936,254.614090 155.143616,257.208832 151.365524,260.466125 
	C166.136520,275.649994 179.782623,289.677521 193.721634,303.870300 
z"/>
<path fill="#3A3D53" opacity="1.000000" stroke="none" 
	d="
M328.230530,288.263397 
	C322.911102,292.862366 321.297913,292.415680 320.097900,285.764801 
	C316.139374,263.825714 312.335358,241.858673 308.524811,219.893219 
	C308.283752,218.503708 308.493469,217.036011 309.572510,214.926788 
	C312.826447,218.237366 316.102814,221.526230 319.329987,224.862701 
	C328.231781,234.065979 337.119049,243.283325 345.995483,252.511047 
	C347.261932,253.827652 348.506836,255.177002 349.639313,256.608063 
	C352.302277,259.973236 352.296051,263.141266 349.151184,266.367767 
	C342.188507,273.511230 335.364319,280.789673 328.230530,288.263397 
z"/>
<path fill="#3A3D53" opacity="1.000000" stroke="none" 
	d="
M163.357956,258.484314 
	C174.358292,246.638855 185.119843,235.057922 196.015549,223.604614 
	C197.111069,222.453018 199.018799,222.074127 200.549606,221.336655 
	C200.762985,223.049316 201.400574,224.833725 201.124832,226.463654 
	C197.985809,245.019806 194.763428,263.562622 191.389587,282.077332 
	C191.002274,284.202759 189.561584,286.136230 188.609283,288.158722 
	C186.527222,287.059326 184.029800,286.376251 182.436722,284.786774 
	C176.317902,278.681824 170.296158,272.450836 164.688919,265.882141 
	C163.305481,264.261505 163.622025,261.189636 163.357956,258.484314 
z"/>
<path fill="#3782D6" opacity="1.000000" stroke="none" 
	d="
M254.225372,219.736908 
	C253.266464,218.393646 252.116730,216.869751 251.785156,215.184860 
	C247.939072,195.641037 244.263184,176.063751 240.435532,156.516235 
	C239.124100,149.818787 241.315567,144.095657 244.895142,138.287018 
	C246.431030,137.949387 247.844925,137.942902 249.662903,138.079071 
	C242.462845,145.447739 243.748108,154.054459 245.660599,163.126816 
	C249.318390,180.478455 252.447769,197.941483 255.857071,215.756714 
	C255.416656,217.263916 254.915634,218.372711 254.225372,219.736908 
z"/>
<path fill="#3686DC" opacity="1.000000" stroke="none" 
	d="
M317.861053,305.763123 
	C311.638092,315.959015 312.643036,322.416626 321.744324,328.788666 
	C322.000580,329.761841 321.998810,330.519989 321.946777,331.654175 
	C315.511475,331.034149 312.054474,326.632233 310.607941,320.986328 
	C308.864624,314.182068 310.338898,307.889893 316.528748,303.107635 
	C317.126221,303.788055 317.431854,304.620819 317.861053,305.763123 
z"/>
</svg>