<?xml version="1.0" encoding="UTF-8"?>
<svg version="1.1" xmlns="http://www.w3.org/2000/svg" width="824" height="824">
<path d="M0 0 C1.75645788 -0.00187477 3.51291534 -0.00417808 5.26937217 -0.00686532 C10.032813 -0.01290768 14.79623609 -0.0128588 19.55967987 -0.01167095 C24.72220807 -0.01146499 29.88473086 -0.01700411 35.04725647 -0.02172852 C45.13884861 -0.02999432 55.23043491 -0.03278152 65.32203016 -0.03334089 C73.53639057 -0.03381806 81.75074907 -0.03588278 89.96510887 -0.03904152 C113.31903595 -0.04783753 136.67295846 -0.05246263 160.02688722 -0.05171105 C161.28288184 -0.05167109 162.53887646 -0.05163113 163.83293152 -0.05158997 C165.09048237 -0.05154909 166.34803323 -0.0515082 167.64369168 -0.05146609 C188.00074375 -0.05106007 208.35777729 -0.06062113 228.714824 -0.07472833 C249.68072824 -0.08914133 270.64662348 -0.0959958 291.61253279 -0.09513456 C303.35768174 -0.09480425 315.10281126 -0.09747778 326.8479557 -0.10831261 C336.8517002 -0.11748276 346.85541647 -0.11954006 356.85916338 -0.11280318 C361.94860725 -0.10957029 367.03799717 -0.10936194 372.12743568 -0.11815643 C436.79977142 -0.22263908 501.67841986 3.67715026 550.59294128 51.13371277 C552.25960795 52.80037944 553.92627462 54.4670461 555.59294128 56.13371277 C556.19235535 56.68672058 556.79176941 57.23972839 557.40934753 57.80949402 C592.59523853 90.7913471 604.67367641 141.70832844 606.59294128 188.13371277 C606.98610122 201.59679482 606.87122426 215.07693818 606.85439062 228.54413652 C606.84981447 233.97299719 606.85687515 239.40184561 606.86235046 244.83070374 C606.87119167 255.43229088 606.86934614 266.03384952 606.86352518 276.63543773 C606.85898778 285.26020079 606.85840472 293.88495593 606.86057281 302.50971985 C606.86087928 303.74247636 606.86118575 304.97523288 606.8615015 306.24534565 C606.86214102 308.75054002 606.86278945 311.25573439 606.86344668 313.76092875 C606.86913453 337.19060232 606.86261643 360.62026018 606.85184595 384.04993117 C606.84280431 404.10488439 606.84446433 424.15981464 606.85368347 444.21476746 C606.8644135 467.5670138 606.86858535 490.9192464 606.86245894 514.27149487 C606.86182192 516.76689847 606.86119318 519.26230208 606.86057281 521.75770569 C606.86026426 522.98513459 606.85995571 524.2125635 606.85963781 525.47718722 C606.85791905 534.08040135 606.8608082 542.68360669 606.86553192 551.28681946 C606.87117122 561.78724896 606.86956071 572.2876486 606.85897043 582.78807473 C606.85375446 588.13401572 606.85158645 593.47990713 606.85826874 598.82584763 C606.92432858 656.66674717 602.78196106 715.71139827 562.59294128 761.13371277 C561.72798035 762.11984558 560.86301941 763.10597839 559.97184753 764.12199402 C524.26682073 804.28136191 475.1882104 820.7537621 422.7050457 823.94533825 C407.91943334 824.69103774 393.06613443 824.41370339 378.26706052 824.39516211 C372.8504699 824.39058578 367.43389154 824.39764672 362.01730347 824.40312195 C351.43977977 824.41196297 340.86228464 824.41011771 330.28475988 824.40429667 C321.67954296 824.39975919 313.07433398 824.39917624 304.46911621 824.4013443 C303.23913506 824.40165077 302.0091539 824.40195723 300.74190059 824.40227298 C298.24234322 824.40291251 295.74278586 824.40356094 293.2432285 824.40421817 C269.86649004 824.40990596 246.48976732 824.40338799 223.11303145 824.39261743 C203.10355869 824.38368334 183.0941131 824.38523582 163.0846405 824.39445496 C139.78513187 824.40518508 116.48563699 824.40935678 93.18612623 824.40323043 C90.69633961 824.40259341 88.20655298 824.40196466 85.71676636 824.4013443 C84.49210156 824.40103575 83.26743677 824.4007272 82.00566092 824.4004093 C73.42198345 824.39869057 64.83831478 824.40157962 56.25463867 824.40630341 C45.77799772 824.41194282 35.30138669 824.41033198 24.82474911 824.39974192 C19.49095969 824.39452609 14.15721995 824.39235769 8.82343102 824.39904022 C-53.770731 824.47071357 -114.06371086 818.50442113 -161.40705872 773.13371277 C-162.26299622 772.34093933 -163.11893372 771.54816589 -164.00080872 770.73136902 C-205.01485627 731.54409657 -216.04734717 676.60490636 -217.40705872 622.13371277 C-217.60751608 609.61461744 -217.55562923 597.09088892 -217.55244243 584.57062101 C-217.55223613 579.50145928 -217.55777889 574.43230302 -217.5625 569.36314392 C-217.57075838 559.45797949 -217.57355266 549.55282102 -217.57411238 539.64765343 C-217.57458991 531.58306154 -217.57665643 523.51847159 -217.579813 515.45388031 C-217.58860706 492.51432919 -217.59323443 469.57478273 -217.59248253 446.63522992 C-217.59244257 445.40206324 -217.59240262 444.16889657 -217.59236145 442.89836121 C-217.59232057 441.66366259 -217.59227969 440.42896397 -217.59223757 439.15685025 C-217.59183163 419.17377714 -217.60139126 399.19072293 -217.61549982 379.20765528 C-217.62992178 358.61570731 -217.63676679 338.02376852 -217.63590604 317.43181539 C-217.63557603 305.90066431 -217.63823602 294.36953302 -217.64908409 282.83838654 C-217.65826618 273.01630124 -217.66030204 263.19424471 -217.65357467 253.37215695 C-217.65034761 248.37751462 -217.65011128 243.38292723 -217.65892792 238.38829041 C-217.68923456 220.02153483 -217.5855861 201.70359011 -216.50125122 183.36399841 C-216.46131915 182.67930791 -216.42138707 181.9946174 -216.38024493 181.2891787 C-213.32724211 130.48432877 -196.00422785 81.79741244 -157.40705872 47.13371277 C-152.88276348 43.27837947 -148.18475328 39.66781087 -143.40705872 36.13371277 C-142.83777649 35.70945007 -142.26849426 35.28518738 -141.68196106 34.84806824 C-100.59219916 4.65894946 -49.35695429 -0.05112129 0 0 Z " fill="#FEFEFE" transform="translate(217.4070587158203,-0.1337127685546875)"/>
<path d="M0 0 C8.58 0 17.16 0 26 0 C26 0.66 26 1.32 26 2 C29.3 2.33 32.6 2.66 36 3 C36 3.66 36 4.32 36 5 C38.97 5 41.94 5 45 5 C45 5.66 45 6.32 45 7 C47.31 7 49.62 7 52 7 C52 7.99 52 8.98 52 10 C53.65 10 55.3 10 57 10 C57 10.66 57 11.32 57 12 C58.65 12 60.3 12 62 12 C62 12.66 62 13.32 62 14 C63.65 14 65.3 14 67 14 C67 14.66 67 15.32 67 16 C68.32 16 69.64 16 71 16 C71 16.99 71 17.98 71 19 C71.66 19 72.32 19 73 19 C73 19.66 73 20.32 73 21 C73.99 21 74.98 21 76 21 C76 21.66 76 22.32 76 23 C76.66 23 77.32 23 78 23 C78 23.99 78 24.98 78 26 C78.99 26 79.98 26 81 26 C81 26.66 81 27.32 81 28 C81.66 28 82.32 28 83 28 C83 28.99 83 29.98 83 31 C83.66 31 84.32 31 85 31 C85 31.66 85 32.32 85 33 C85.99 33 86.98 33 88 33 C88 33.66 88 34.32 88 35 C88.66 35 89.32 35 90 35 C90 35.99 90 36.98 90 38 C90.66 38 91.32 38 92 38 C92 38.66 92 39.32 92 40 C92.99 40 93.98 40 95 40 C95 40.66 95 41.32 95 42 C95.66 42 96.32 42 97 42 C97 43.65 97 45.3 97 47 C97.99 47 98.98 47 100 47 C100 47.66 100 48.32 100 49 C100.66 49 101.32 49 102 49 C102 50.65 102 52.3 102 54 C102.66 54 103.32 54 104 54 C104 55.65 104 57.3 104 59 C104.99 59 105.98 59 107 59 C107 61.31 107 63.62 107 66 C107.66 66 108.32 66 109 66 C109 68.31 109 70.62 109 73 C109.66 73 110.32 73 111 73 C111 78.61 111 84.22 111 90 C111.66 90 112.32 90 113 90 C113 99.24 113 108.48 113 118 C112.34 118 111.68 118 111 118 C111 120.31 111 122.62 111 125 C110.34 125 109.68 125 109 125 C109 127.31 109 129.62 109 132 C108.34 132 107.68 132 107 132 C106.67 134.31 106.34 136.62 106 139 C105.34 139 104.68 139 104 139 C104 140.65 104 142.3 104 144 C103.34 144 102.68 144 102 144 C102 146.31 102 148.62 102 151 C101.34 151 100.68 151 100 151 C100 151.66 100 152.32 100 153 C99.01 153 98.02 153 97 153 C97 154.65 97 156.3 97 158 C96.34 158 95.68 158 95 158 C95 158.99 95 159.98 95 161 C94.34 161 93.68 161 93 161 C93 161.66 93 162.32 93 163 C92.01 163 91.02 163 90 163 C90 164.32 90 165.64 90 167 C89.34 167 88.68 167 88 167 C88 167.99 88 168.98 88 170 C87.01 170 86.02 170 85 170 C85 170.66 85 171.32 85 172 C84.34 172 83.68 172 83 172 C83 172.66 83 173.32 83 174 C82.34 174 81.68 174 81 174 C81 174.99 81 175.98 81 177 C79.35 177 77.7 177 76 177 C76 177.66 76 178.32 76 179 C75.34 179 74.68 179 74 179 C73.67 179.99 73.34 180.98 73 182 C72.34 182 71.68 182 71 182 C71 182.66 71 183.32 71 184 C70.34 184 69.68 184 69 184 C69 184.99 69 185.98 69 187 C67.35 187 65.7 187 64 187 C64 187.66 64 188.32 64 189 C62.35 189 60.7 189 59 189 C59 189.66 59 190.32 59 191 C57.68 191 56.36 191 55 191 C55 191.66 55 192.32 55 193 C53.35 193 51.7 193 50 193 C50 193.99 50 194.98 50 196 C47.03 196 44.06 196 41 196 C41 196.66 41 197.32 41 198 C37.7 198 34.4 198 31 198 C31 198.99 31 199.98 31 201 C5.26 201 -20.48 201 -47 201 C-47 201.66 -47 202.32 -47 203 C-49.31 203 -51.62 203 -54 203 C-54 203.66 -54 204.32 -54 205 C-55.65 205 -57.3 205 -59 205 C-59 205.66 -59 206.32 -59 207 C-60.32 207.33 -61.64 207.66 -63 208 C-63 208.66 -63 209.32 -63 210 C-63.99 210 -64.98 210 -66 210 C-66 210.66 -66 211.32 -66 212 C-67.32 212 -68.64 212 -70 212 C-70 212.99 -70 213.98 -70 215 C-70.99 215 -71.98 215 -73 215 C-73 216.32 -73 217.64 -73 219 C-73.66 219 -74.32 219 -75 219 C-75 219.99 -75 220.98 -75 222 C-75.66 222 -76.32 222 -77 222 C-77 222.66 -77 223.32 -77 224 C-77.99 224 -78.98 224 -80 224 C-80 225.65 -80 227.3 -80 229 C-80.66 229 -81.32 229 -82 229 C-82 231.31 -82 233.62 -82 236 C-82.99 236 -83.98 236 -85 236 C-85 290.45 -85 344.9 -85 401 C-151 401 -217 401 -285 401 C-285 329.39 -285 257.78 -285 184 C-282.69 184 -280.38 184 -278 184 C-278 184.66 -278 185.32 -278 186 C-276.35 186.33 -274.7 186.66 -273 187 C-273 187.66 -273 188.32 -273 189 C-271.68 189 -270.36 189 -269 189 C-269 189.66 -269 190.32 -269 191 C-266.36 191 -263.72 191 -261 191 C-261 191.66 -261 192.32 -261 193 C-259.68 193.33 -258.36 193.66 -257 194 C-257 194.66 -257 195.32 -257 196 C-253.7 196 -250.4 196 -247 196 C-247 196.66 -247 197.32 -247 198 C-242.38 198 -237.76 198 -233 198 C-233 198.66 -233 199.32 -233 200 C-222.11 200 -211.22 200 -200 200 C-200 199.34 -200 198.68 -200 198 C-195.38 198 -190.76 198 -186 198 C-186 197.34 -186 196.68 -186 196 C-176.58997722 193.88838269 -176.58997722 193.88838269 -172 193 C-172 192.34 -172 191.68 -172 191 C-169.69 191 -167.38 191 -165 191 C-165 190.34 -165 189.68 -165 189 C-163.35 189 -161.7 189 -160 189 C-160 188.01 -160 187.02 -160 186 C-158.35 186 -156.7 186 -155 186 C-155 185.34 -155 184.68 -155 184 C-153.68 184 -152.36 184 -151 184 C-151 183.01 -151 182.02 -151 181 C-149.35 181 -147.7 181 -146 181 C-146 180.34 -146 179.68 -146 179 C-145.01 179 -144.02 179 -143 179 C-143 178.34 -143 177.68 -143 177 C-141.68 177 -140.36 177 -139 177 C-139 176.01 -139 175.02 -139 174 C-137.35 174 -135.7 174 -134 174 C-134 173.34 -134 172.68 -134 172 C-133.34 172 -132.68 172 -132 172 C-132 171.34 -132 170.68 -132 170 C-131.01 170 -130.02 170 -129 170 C-129 169.34 -129 168.68 -129 168 C-128.34 168 -127.68 168 -127 168 C-127 167.01 -127 166.02 -127 165 C-126.34 165 -125.68 165 -125 165 C-125 164.34 -125 163.68 -125 163 C-124.01 163 -123.02 163 -122 163 C-122 162.01 -122 161.02 -122 160 C-121.34 160 -120.68 160 -120 160 C-120 159.34 -120 158.68 -120 158 C-119.01 158 -118.02 158 -117 158 C-117 157.34 -117 156.68 -117 156 C-116.34 156 -115.68 156 -115 156 C-115 155.34 -115 154.68 -115 154 C-114.01 154 -113.02 154 -112 154 C-111.67 151.36 -111.34 148.72 -111 146 C-110.01 146 -109.02 146 -108 146 C-108 145.34 -108 144.68 -108 144 C-107.01 144 -106.02 144 -105 144 C-104.34 141.69 -103.68 139.38 -103 137 C-102.34 137 -101.68 137 -101 137 C-101 135.35 -101 133.7 -101 132 C-100.34 132 -99.68 132 -99 132 C-99 130.35 -99 128.7 -99 127 C-98.34 127 -97.68 127 -97 127 C-96.67 125.68 -96.34 124.36 -96 123 C-95.34 123 -94.68 123 -94 123 C-94 121.35 -94 119.7 -94 118 C-93.34 118 -92.68 118 -92 118 C-91.67 115.69 -91.34 113.38 -91 111 C-90.34 111 -89.68 111 -89 111 C-89 108.69 -89 106.38 -89 104 C-88.34 104 -87.68 104 -87 104 C-87 100.7 -87 97.4 -87 94 C-86.34 94 -85.68 94 -85 94 C-84.67 89.38 -84.34 84.76 -84 80 C-83.34 80 -82.68 80 -82 80 C-82 77.03 -82 74.06 -82 71 C-81.34 71 -80.68 71 -80 71 C-80 68.69 -80 66.38 -80 64 C-79.01 64 -78.02 64 -77 64 C-77 62.35 -77 60.7 -77 59 C-76.34 59 -75.68 59 -75 59 C-75 57.35 -75 55.7 -75 54 C-74.34 54 -73.68 54 -73 54 C-73 52.35 -73 50.7 -73 49 C-72.34 49 -71.68 49 -71 49 C-71 48.34 -71 47.68 -71 47 C-70.01 47 -69.02 47 -68 47 C-68 45.35 -68 43.7 -68 42 C-67.34 42 -66.68 42 -66 42 C-66 41.34 -66 40.68 -66 40 C-65.01 40 -64.02 40 -63 40 C-63 38.68 -63 37.36 -63 36 C-62.34 36 -61.68 36 -61 36 C-61 35.01 -61 34.02 -61 33 C-60.01 33 -59.02 33 -58 33 C-58 32.34 -58 31.68 -58 31 C-57.34 31 -56.68 31 -56 31 C-56 30.01 -56 29.02 -56 28 C-55.34 28 -54.68 28 -54 28 C-54 27.34 -54 26.68 -54 26 C-53.01 26 -52.02 26 -51 26 C-51 25.34 -51 24.68 -51 24 C-50.34 24 -49.68 24 -49 24 C-49 23.01 -49 22.02 -49 21 C-48.34 21 -47.68 21 -47 21 C-47 20.34 -47 19.68 -47 19 C-44.69 19 -42.38 19 -40 19 C-40 18.34 -40 17.68 -40 17 C-39.01 17 -38.02 17 -37 17 C-37 16.01 -37 15.02 -37 14 C-36.34 14 -35.68 14 -35 14 C-35 13.34 -35 12.68 -35 12 C-33.35 12 -31.7 12 -30 12 C-30 11.34 -30 10.68 -30 10 C-28.35 9.67 -26.7 9.34 -25 9 C-25 8.34 -25 7.68 -25 7 C-23.02 7 -21.04 7 -19 7 C-19 6.34 -19 5.68 -19 5 C-17.95199219 4.80083984 -17.95199219 4.80083984 -16.8828125 4.59765625 C-15.97273438 4.42105469 -15.06265625 4.24445313 -14.125 4.0625 C-13.22007812 3.88847656 -12.31515625 3.71445313 -11.3828125 3.53515625 C-9.00043683 3.10036299 -9.00043683 3.10036299 -7 2 C-4.6670134 1.95977609 -2.33293334 1.95679753 0 2 C0 1.34 0 0.68 0 0 Z " fill="#010101" transform="translate(496,211)"/>
<path d="M0 0 C2.31 0 4.62 0 7 0 C7 0.66 7 1.32 7 2 C7.66 2.33 8.32 2.66 9 3 C7.02 3.33 5.04 3.66 3 4 C2.67 74.29 2.34 144.58 2 217 C1.34 217 0.68 217 0 217 C0 145.39 0 73.78 0 0 Z " fill="#292929" transform="translate(211,395)"/>
<path d="M0 0 C24.09 0 48.18 0 73 0 C73 0.99 73 1.98 73 3 C47.26 3 21.52 3 -5 3 C-5 3.66 -5 4.32 -5 5 C-6.65 5 -8.3 5 -10 5 C-8.9375 3.5 -8.9375 3.5 -7 2 C-3.3125 1.8125 -3.3125 1.8125 0 2 C0 1.34 0 0.68 0 0 Z " fill="#131313" transform="translate(454,409)"/>
<path d="M0 0 C0.99 0 1.98 0 3 0 C3 1.65 3 3.3 3 5 C2.34 5 1.68 5 1 5 C1 57.8 1 110.6 1 165 C0.67 165 0.34 165 0 165 C0 110.55 0 56.1 0 0 Z " fill="#ABABAB" transform="translate(411,447)"/>
<path d="M0 0 C0 0.99 0 1.98 0 3 C-25.74 3 -51.48 3 -78 3 C-78 3.66 -78 4.32 -78 5 C-79.65 5 -81.3 5 -83 5 C-81.93812561 3.52603149 -81.93812561 3.52603149 -80 2 C-76.8813324 1.60800171 -76.8813324 1.60800171 -72.98999023 1.58349609 C-72.28075409 1.57491074 -71.57151794 1.56632538 -70.84078979 1.55747986 C-68.49662387 1.53238715 -66.15288177 1.52803834 -63.80859375 1.5234375 C-62.18098147 1.50913067 -60.55338134 1.49337423 -58.92579651 1.47622681 C-54.64074109 1.43434029 -50.35576096 1.40936552 -46.07055664 1.38873291 C-39.20765316 1.35293891 -32.34493543 1.29200744 -25.48222542 1.23024368 C-23.08136669 1.2111189 -20.6805576 1.1994134 -18.27964783 1.18881226 C-16.81330253 1.17860291 -15.34695826 1.16824523 -13.88061523 1.15771484 C-12.59726791 1.15121918 -11.31392059 1.14472351 -9.99168396 1.13803101 C-6.41918311 0.97320214 -3.69178037 -0.09715212 0 0 Z " fill="#7D7D7D" transform="translate(527,409)"/>
<path d="M0 0 C0.33 0.66 0.66 1.32 1 2 C1.66 2 2.32 2 3 2 C3 16.19 3 30.38 3 45 C2.34 45 1.68 45 1 45 C1 47.31 1 49.62 1 52 C0.01 52 -0.98 52 -2 52 C-2 50.35 -2 48.7 -2 47 C-1.34 47 -0.68 47 0 47 C0 44.69 0 42.38 0 40 C0.66 40 1.32 40 2 40 C2 30.76 2 21.52 2 12 C1.34 12 0.68 12 0 12 C0 8.04 0 4.08 0 0 Z " fill="#696969" transform="translate(607,289)"/>
<path d="M0 0 C2.97 0 5.94 0 9 0 C9 0.99 9 1.98 9 3 C-4.86 3 -18.72 3 -33 3 C-33 2.67 -33 2.34 -33 2 C-22.11 2 -11.22 2 0 2 C0 1.34 0 0.68 0 0 Z " fill="#6E6E6E" transform="translate(296,409)"/>
<path d="M0 0 C0.66 0 1.32 0 2 0 C1.67 1.65 1.34 3.3 1 5 C0.01 5 -0.98 5 -2 5 C-2 5.66 -2 6.32 -2 7 C-2.66 7 -3.32 7 -4 7 C-4 7.66 -4 8.32 -4 9 C-4.99 9 -5.98 9 -7 9 C-7 9.66 -7 10.32 -7 11 C-7.66 11 -8.32 11 -9 11 C-9 8.69 -9 6.38 -9 4 C-8.34 4 -7.68 4 -7 4 C-7 4.66 -7 5.32 -7 6 C-6.34 6 -5.68 6 -5 6 C-5 5.34 -5 4.68 -5 4 C-4.01 4 -3.02 4 -2 4 C-2 3.34 -2 2.68 -2 2 C-1.34 2 -0.68 2 0 2 C0 1.34 0 0.68 0 0 Z " fill="#BBBBBB" transform="translate(383,360)"/>
<path d="M0 0 C0.66 0 1.32 0 2 0 C2 0.99 2 1.98 2 3 C1.34 3 0.68 3 0 3 C0 6.63 0 10.26 0 14 C-0.66 14 -1.32 14 -2 14 C-2 14.66 -2 15.32 -2 16 C-2.99 16 -3.98 16 -5 16 C-5 14.68 -5 13.36 -5 12 C-4.34 12 -3.68 12 -3 12 C-3 10.35 -3 8.7 -3 7 C-2.34 7 -1.68 7 -1 7 C-0.67 4.69 -0.34 2.38 0 0 Z " fill="#9A9A9A" transform="translate(603,343)"/>
<path d="M0 0 C2.31 0 4.62 0 7 0 C7 0.66 7 1.32 7 2 C10.3 2 13.6 2 17 2 C17 2.99 17 3.98 17 5 C15.35 5 13.7 5 12 5 C12 4.34 12 3.68 12 3 C8.7 3 5.4 3 2 3 C2 2.34 2 1.68 2 1 C1.34 0.67 0.68 0.34 0 0 Z " fill="#BFBFBF" transform="translate(237,404)"/>
<path d="M0 0 C0.33 0 0.66 0 1 0 C1 3.3 1 6.6 1 10 C0.34 10 -0.32 10 -1 10 C-1 12.31 -1 14.62 -1 17 C-1.99 17 -2.98 17 -4 17 C-4 15.35 -4 13.7 -4 12 C-3.34 12 -2.68 12 -2 12 C-2 9.69 -2 7.38 -2 5 C-1.34 5 -0.68 5 0 5 C0 3.35 0 1.7 0 0 Z " fill="#ABABAB" transform="translate(609,324)"/>
<path d="M0 0 C3.96 0 7.92 0 12 0 C12 0.66 12 1.32 12 2 C13.65 2 15.3 2 17 2 C17 2.99 17 3.98 17 5 C16.01 5 15.02 5 14 5 C14 4.34 14 3.68 14 3 C11.03 3 8.06 3 5 3 C5 2.34 5 1.68 5 1 C3.35 1 1.7 1 0 1 C0 0.67 0 0.34 0 0 Z " fill="#B9B9B9" transform="translate(527,213)"/>
<path d="M0 0 C0.99 0 1.98 0 3 0 C3 0.99 3 1.98 3 3 C-0.3 3.66 -3.6 4.32 -7 5 C-7 5.66 -7 6.32 -7 7 C-8.32 7 -9.64 7 -11 7 C-11 6.34 -11 5.68 -11 5 C-9.35 4.67 -7.7 4.34 -6 4 C-6 3.34 -6 2.68 -6 2 C-4.02 2 -2.04 2 0 2 C0 1.34 0 0.68 0 0 Z " fill="#4C4C4C" transform="translate(477,216)"/>
<path d="M0 0 C2.64 0 5.28 0 8 0 C8 0.99 8 1.98 8 3 C3.05 3 -1.9 3 -7 3 C-7 2.67 -7 2.34 -7 2 C-4.69 2 -2.38 2 0 2 C0 1.34 0 0.68 0 0 Z " fill="#484848" transform="translate(496,211)"/>
<path d="M0 0 C1.40668945 0.01450195 1.40668945 0.01450195 2.84179688 0.02929688 C3.81826172 0.05443359 4.79472656 0.07957031 5.80078125 0.10546875 C6.78884766 0.11900391 7.77691406 0.13253906 8.79492188 0.14648438 C11.23492356 0.18184672 13.67382844 0.23119842 16.11328125 0.29296875 C16.11328125 0.62296875 16.11328125 0.95296875 16.11328125 1.29296875 C9.84328125 1.29296875 3.57328125 1.29296875 -2.88671875 1.29296875 C-2.88671875 1.95296875 -2.88671875 2.61296875 -2.88671875 3.29296875 C-4.53671875 3.29296875 -6.18671875 3.29296875 -7.88671875 3.29296875 C-5.42854811 0.24399315 -3.85656876 -0.07011943 0 0 Z " fill="#5E5E5E" transform="translate(451.88671875,410.70703125)"/>
<path d="M0 0 C0.99 0 1.98 0 3 0 C3 0.66 3 1.32 3 2 C4.65 2 6.3 2 8 2 C8 2.66 8 3.32 8 4 C9.32 4 10.64 4 12 4 C12 4.99 12 5.98 12 7 C11.34 7 10.68 7 10 7 C10 6.34 10 5.68 10 5 C8.35 5 6.7 5 5 5 C5 4.34 5 3.68 5 3 C3.35 3 1.7 3 0 3 C0 2.01 0 1.02 0 0 Z " fill="#A7A7A7" transform="translate(548,218)"/>
<path d="M0 0 C2.97 0 5.94 0 9 0 C9 0.99 9 1.98 9 3 C6.03 3 3.06 3 0 3 C0 2.01 0 1.02 0 0 Z " fill="#525252" transform="translate(296,409)"/>
<path d="M0 0 C1.65 0 3.3 0 5 0 C5 0.99 5 1.98 5 3 C2.69 3 0.38 3 -2 3 C-2 3.66 -2 4.32 -2 5 C-3.65 5 -5.3 5 -7 5 C-5.75 3.5 -5.75 3.5 -4 2 C-2.68 2 -1.36 2 0 2 C0 1.34 0 0.68 0 0 Z " fill="#6B6B6B" transform="translate(324,402)"/>
<path d="M0 0 C0.99 0 1.98 0 3 0 C2.34 3.3 1.68 6.6 1 10 C0.01 10.33 -0.98 10.66 -2 11 C-2 9.02 -2 7.04 -2 5 C-1.34 5 -0.68 5 0 5 C0 3.35 0 1.7 0 0 Z " fill="#B3B3B3" transform="translate(416,435)"/>
<path d="M0 0 C0.66 0 1.32 0 2 0 C2 0.99 2 1.98 2 3 C1.34 3 0.68 3 0 3 C0 3.66 0 4.32 0 5 C-1.65 5 -3.3 5 -5 5 C-5 5.66 -5 6.32 -5 7 C-5.99 7 -6.98 7 -8 7 C-8 6.01 -8 5.02 -8 4 C-6.35 4 -4.7 4 -3 4 C-3 3.34 -3 2.68 -3 2 C-2.01 2 -1.02 2 0 2 C0 1.34 0 0.68 0 0 Z " fill="#696969" transform="translate(353,388)"/>
<path d="M0 0 C0.99 0 1.98 0 3 0 C3 2.31 3 4.62 3 7 C3.66 7 4.32 7 5 7 C5 8.65 5 10.3 5 12 C4.01 12 3.02 12 2 12 C2 8.7 2 5.4 2 2 C1.34 2 0.68 2 0 2 C0 1.34 0 0.68 0 0 Z " fill="#535353" transform="translate(600,270)"/>
<path d="M0 0 C0.33 0.66 0.66 1.32 1 2 C1.66 2 2.32 2 3 2 C3 3.65 3 5.3 3 7 C3.66 7 4.32 7 5 7 C5 7.99 5 8.98 5 10 C4.01 9.67 3.02 9.34 2 9 C2 8.34 2 7.68 2 7 C1.34 7 0.68 7 0 7 C0 4.69 0 2.38 0 0 Z " fill="#6A6A6A" transform="translate(595,258)"/>
<path d="M0 0 C2.31 0 4.62 0 7 0 C7 0.66 7 1.32 7 2 C8.65 2 10.3 2 12 2 C12 2.33 12 2.66 12 3 C8.37 3 4.74 3 1 3 C0.67 2.01 0.34 1.02 0 0 Z " fill="#353535" transform="translate(515,211)"/>
<path d="M0 0 C0.99 0 1.98 0 3 0 C3 1.65 3 3.3 3 5 C2.34 5 1.68 5 1 5 C1 7.97 1 10.94 1 14 C0.67 14 0.34 14 0 14 C0 9.38 0 4.76 0 0 Z " fill="#9F9F9F" transform="translate(411,447)"/>
<path d="M0 0 C0.66 0 1.32 0 2 0 C2 1.65 2 3.3 2 5 C1.34 5 0.68 5 0 5 C0 5.66 0 6.32 0 7 C-1.65 7 -3.3 7 -5 7 C-5 6.34 -5 5.68 -5 5 C-4.01 5 -3.02 5 -2 5 C-2 4.34 -2 3.68 -2 3 C-1.34 3 -0.68 3 0 3 C0 2.01 0 1.02 0 0 Z " fill="#2F2F2F" transform="translate(440,239)"/>
<path d="M0 0 C2.31 0 4.62 0 7 0 C7 0.66 7 1.32 7 2 C6.34 2 5.68 2 5 2 C5 2.99 5 3.98 5 5 C4.01 5 3.02 5 2 5 C2 4.01 2 3.02 2 2 C1.34 2 0.68 2 0 2 C0 1.34 0 0.68 0 0 Z " fill="#393939" transform="translate(572,383)"/>
<path d="M0 0 C0.33 0 0.66 0 1 0 C1 1.65 1 3.3 1 5 C0.34 5 -0.32 5 -1 5 C-1 6.65 -1 8.3 -1 10 C-1.99 10 -2.98 10 -4 10 C-4 9.01 -4 8.02 -4 7 C-3.34 7 -2.68 7 -2 7 C-2 5.35 -2 3.7 -2 2 C-1.34 2 -0.68 2 0 2 C0 1.34 0 0.68 0 0 Z " fill="#474747" transform="translate(425,258)"/>
<path d="M0 0 C0.99 0 1.98 0 3 0 C3 0.99 3 1.98 3 3 C2.34 3 1.68 3 1 3 C0.87625 3.78375 0.7525 4.5675 0.625 5.375 C0 8 0 8 -2 10 C-2 8.35 -2 6.7 -2 5 C-1.34 5 -0.68 5 0 5 C0 3.35 0 1.7 0 0 Z " fill="#898989" transform="translate(392,345)"/>
<path d="M0 0 C-0.66 1.32 -1.32 2.64 -2 4 C-4.31 4 -6.62 4 -9 4 C-9 3.34 -9 2.68 -9 2 C-2.25 0 -2.25 0 0 0 Z " fill="#1A1A1A" transform="translate(489,214)"/>
<path d="M0 0 C0.99 0 1.98 0 3 0 C3 0.99 3 1.98 3 3 C1.35 3 -0.3 3 -2 3 C-2 3.66 -2 4.32 -2 5 C-3.65 5 -5.3 5 -7 5 C-6.01 4.67 -5.02 4.34 -4 4 C-4 3.34 -4 2.68 -4 2 C-2.68 2 -1.36 2 0 2 C0 1.34 0 0.68 0 0 Z " fill="#777777" transform="translate(562,395)"/>
<path d="M0 0 C0.99 0 1.98 0 3 0 C3 0.99 3 1.98 3 3 C2.0925 3.144375 1.185 3.28875 0.25 3.4375 C-2.21476956 3.86409473 -4.58847107 4.35074221 -7 5 C-6.34 4.67 -5.68 4.34 -5 4 C-5 3.34 -5 2.68 -5 2 C-3.35 2 -1.7 2 0 2 C0 1.34 0 0.68 0 0 Z " fill="#B4B4B4" transform="translate(442,414)"/>
<path d="M0 0 C0.66 0 1.32 0 2 0 C2 1.65 2 3.3 2 5 C0.35 5 -1.3 5 -3 5 C-3 4.01 -3 3.02 -3 2 C-2.01 2 -1.02 2 0 2 C0 1.34 0 0.68 0 0 Z " fill="#E9E9E9" transform="translate(216,390)"/>
<path d="M0 0 C0.99 0 1.98 0 3 0 C3 0.99 3 1.98 3 3 C1.02 3 -0.96 3 -3 3 C-3 3.66 -3 4.32 -3 5 C-3.66 5 -4.32 5 -5 5 C-5 4.01 -5 3.02 -5 2 C-3.35 2 -1.7 2 0 2 C0 1.34 0 0.68 0 0 Z " fill="#6F6F6F" transform="translate(341,395)"/>
<path d="M0 0 C2.475 0.99 2.475 0.99 5 2 C4.67 3.65 4.34 5.3 4 7 C3.34 7 2.68 7 2 7 C2 5.35 2 3.7 2 2 C1.34 2 0.68 2 0 2 C0 1.34 0 0.68 0 0 Z " fill="#E4E4E4" transform="translate(409,282)"/>
<path d="M0 0 C1.32 0 2.64 0 4 0 C4.33 0.99 4.66 1.98 5 3 C4.67 3.66 4.34 4.32 4 5 C3.34 5 2.68 5 2 5 C2 4.34 2 3.68 2 3 C1.34 3 0.68 3 0 3 C0 2.01 0 1.02 0 0 Z " fill="#E6E6E6" transform="translate(419,433)"/>
<path d="M0 0 C2.31 0 4.62 0 7 0 C7 0.99 7 1.98 7 3 C5.35 3 3.7 3 2 3 C2 2.34 2 1.68 2 1 C1.34 0.67 0.68 0.34 0 0 Z " fill="#8B8B8B" transform="translate(237,404)"/>
<path d="M0 0 C-0.33 1.65 -0.66 3.3 -1 5 C-1.66 5 -2.32 5 -3 5 C-3 4.34 -3 3.68 -3 3 C-3.66 3 -4.32 3 -5 3 C-5 2.34 -5 1.68 -5 1 C-2 0 -2 0 0 0 Z " fill="#0F0F0F" transform="translate(386,364)"/>
<path d="M0 0 C0.33 0.66 0.66 1.32 1 2 C1.66 2 2.32 2 3 2 C3 3.65 3 5.3 3 7 C2.01 7 1.02 7 0 7 C0 4.69 0 2.38 0 0 Z " fill="#A6A6A6" transform="translate(607,289)"/>
<path d="M0 0 C0.33 0 0.66 0 1 0 C1 1.65 1 3.3 1 5 C1.66 5 2.32 5 3 5 C3 5.66 3 6.32 3 7 C2.01 7 1.02 7 0 7 C0 6.34 0 5.68 0 5 C-0.66 5 -1.32 5 -2 5 C-2 4.01 -2 3.02 -2 2 C-1.34 2 -0.68 2 0 2 C0 1.34 0 0.68 0 0 Z " fill="#272727" transform="translate(430,251)"/>
<path d="M0 0 C0.99 0 1.98 0 3 0 C3 0.66 3 1.32 3 2 C3.66 2 4.32 2 5 2 C5 2.99 5 3.98 5 5 C4.01 5 3.02 5 2 5 C2 4.34 2 3.68 2 3 C1.34 3 0.68 3 0 3 C0 2.01 0 1.02 0 0 Z " fill="#9E9E9E" transform="translate(579,239)"/>
<path d="M0 0 C0.99 0 1.98 0 3 0 C3 0.99 3 1.98 3 3 C2.34 3 1.68 3 1 3 C1 3.66 1 4.32 1 5 C0.01 5 -0.98 5 -2 5 C-2 4.01 -2 3.02 -2 2 C-1.34 2 -0.68 2 0 2 C0 1.34 0 0.68 0 0 Z " fill="#737373" transform="translate(449,230)"/>
<path d="M0 0 C2.31 0 4.62 0 7 0 C4.64031256 2.09749995 3.45383006 2.96905704 0.25 3.1875 C-0.86375 3.0946875 -0.86375 3.0946875 -2 3 C-1.34 2.67 -0.68 2.34 0 2 C0 1.34 0 0.68 0 0 Z " fill="#A4A4A4" transform="translate(482,213)"/>
<path d="M0 0 C2.97 0 5.94 0 9 0 C9 0.99 9 1.98 9 3 C7.68 3 6.36 3 5 3 C5 2.34 5 1.68 5 1 C3.35 1 1.7 1 0 1 C0 0.67 0 0.34 0 0 Z " fill="#797979" transform="translate(527,213)"/>
</svg>
