<?xml version="1.0" encoding="UTF-8"?>
<svg version="1.1" xmlns="http://www.w3.org/2000/svg" width="192" height="192">
<path d="M0 0 C2.59586819 -0.00337378 5.19173483 -0.00823107 7.78759766 -0.01449585 C13.21078105 -0.02184048 18.63351571 -0.01172515 24.05664062 0.01220703 C30.29227714 0.03941014 36.52709574 0.0305927 42.76271248 0.003075 C48.80536125 -0.0225056 54.84761574 -0.01959961 60.89031982 -0.00501633 C63.441794 -0.00170024 65.99328931 -0.00570547 68.54473877 -0.01741409 C87.35127231 -0.08479468 100.61283327 1.02210213 115 14.0390625 C129.00197208 29.51492637 129.13119498 44.21229509 129.0390625 64.2890625 C129.04243628 66.88493069 129.04729357 69.48079733 129.05355835 72.07666016 C129.06090298 77.49984355 129.05078765 82.92257821 129.02685547 88.34570312 C128.99965236 94.58133964 129.0084698 100.81615824 129.0359875 107.05177498 C129.0615681 113.09442375 129.05866211 119.13667824 129.04407883 125.17938232 C129.04076274 127.7308565 129.04476797 130.28235181 129.05647659 132.83380127 C129.12385718 151.64033481 128.01696037 164.90189577 115 179.2890625 C99.52413613 193.29103458 84.82676741 193.42025748 64.75 193.328125 C62.15413181 193.33149878 59.55826517 193.33635607 56.96240234 193.34262085 C51.53921895 193.34996548 46.11648429 193.33985015 40.69335938 193.31591797 C34.45772286 193.28871486 28.22290426 193.2975323 21.98728752 193.32505 C15.94463875 193.3506306 9.90238426 193.34772461 3.85968018 193.33314133 C1.308206 193.32982524 -1.24328931 193.33383047 -3.79473877 193.34553909 C-22.60127231 193.41291968 -35.86283327 192.30602287 -50.25 179.2890625 C-64.25197208 163.81319863 -64.38119498 149.11582991 -64.2890625 129.0390625 C-64.29243628 126.44319431 -64.29729357 123.84732767 -64.30355835 121.25146484 C-64.31090298 115.82828145 -64.30078765 110.40554679 -64.27685547 104.98242188 C-64.24965236 98.74678536 -64.2584698 92.51196676 -64.2859875 86.27635002 C-64.3115681 80.23370125 -64.30866211 74.19144676 -64.29407883 68.14874268 C-64.29076274 65.5972685 -64.29476797 63.04577319 -64.30647659 60.49432373 C-64.37385718 41.68779019 -63.26696037 28.42622923 -50.25 14.0390625 C-34.77413613 0.03709042 -20.07676741 -0.09213248 0 0 Z " fill="#000000" transform="translate(63.625,-0.6640625)"/>
<path d="M0 0 C2.71165098 -0.19023832 5.40986929 -0.32809095 8.125 -0.4375 C8.88554688 -0.49615234 9.64609375 -0.55480469 10.4296875 -0.61523438 C13.6612758 -0.71273919 16.02655592 -0.7455801 18.65625 1.26855469 C20.25667541 3.09867078 21.62737336 4.99351416 23 7 C24.09732816 8.46216234 25.19635409 9.92305172 26.296875 11.3828125 C27.4503505 12.96176655 28.60131573 14.54255693 29.75 16.125 C34.70706107 22.9099034 39.73637849 29.62038821 44.9140625 36.23828125 C45.60242188 37.14964844 46.29078125 38.06101563 47 39 C47.79148438 40.00417969 48.58296875 41.00835937 49.3984375 42.04296875 C51 45 51 45 50.30029297 47.40893555 C48.99852113 50.00294691 47.57878038 52.12656285 45.796875 54.4140625 C45.15250488 55.24897217 44.50813477 56.08388184 43.84423828 56.9440918 C43.15313965 57.8287915 42.46204102 58.71349121 41.75 59.625 C40.30332312 61.49764468 38.85804095 63.37136755 37.4140625 65.24609375 C36.6809082 66.19726074 35.94775391 67.14842773 35.19238281 68.12841797 C31.16370947 73.40517252 27.25237801 78.76803796 23.34277344 84.13330078 C22.79911133 84.87692871 22.25544922 85.62055664 21.6953125 86.38671875 C21.22109863 87.03858154 20.74688477 87.69044434 20.25830078 88.36206055 C19 90 19 90 17 92 C14.0906442 92.14517744 11.280054 92.18630796 8.375 92.125 C7.57320312 92.11597656 6.77140625 92.10695313 5.9453125 92.09765625 C3.96341477 92.07406223 1.98167019 92.03819065 0 92 C2.97575895 86.45492722 6.45441122 81.66137492 10.375 76.75 C15.60834873 70.09127993 20.79549127 63.40204778 25.875 56.625 C26.48778809 55.82288086 27.10057617 55.02076172 27.73193359 54.19433594 C28.29219238 53.4418457 28.85245117 52.68935547 29.4296875 51.9140625 C29.92710449 51.2535791 30.42452148 50.5930957 30.93701172 49.91259766 C32.323863 47.78197529 32.323863 47.78197529 32 44 C30.75967668 41.83027935 30.75967668 41.83027935 28.9921875 39.68359375 C28.34137207 38.84562256 27.69055664 38.00765137 27.02001953 37.14428711 C26.31216309 36.25104736 25.60430664 35.35780762 24.875 34.4375 C23.41019049 32.55306817 21.94667654 30.66762865 20.484375 28.78125 C19.36579102 27.34458984 19.36579102 27.34458984 18.22460938 25.87890625 C14.79706123 21.4432557 11.45291514 16.94815389 8.125 12.4375 C7.53702637 11.64722412 6.94905273 10.85694824 6.34326172 10.04272461 C5.52752686 8.93682983 5.52752686 8.93682983 4.6953125 7.80859375 C4.22109863 7.16720459 3.74688477 6.52581543 3.25830078 5.86499023 C1.98301472 3.97482527 0.97223604 2.06007855 0 0 Z " fill="#F9F9F9" transform="translate(39,50)"/>
<path d="M0 0 C16.83 0 33.66 0 51 0 C51 3.96 51 7.92 51 12 C34.17 12 17.34 12 0 12 C0 8.04 0 4.08 0 0 Z " fill="#F9F9F9" transform="translate(102,130)"/>
</svg>
