<?xml version="1.0" encoding="UTF-8"?>
<svg version="1.1" xmlns="http://www.w3.org/2000/svg" width="512" height="512">
<path d="M0 0 C1.00590179 -0.00525696 2.01180359 -0.01051392 3.04818726 -0.01593018 C6.35243542 -0.02906702 9.65619669 -0.02041563 12.96044922 -0.01025391 C15.26634819 -0.01227613 17.57224653 -0.01518881 19.87814331 -0.01895142 C24.70137648 -0.02336595 29.52444256 -0.01697042 34.34765625 -0.00292969 C40.52593815 0.01418072 46.70382958 0.00430348 52.88209724 -0.01364708 C57.6399123 -0.02449192 62.39763488 -0.02103564 67.15545273 -0.0132637 C69.43360312 -0.01126464 71.71176195 -0.01371062 73.9899025 -0.02070236 C77.17318196 -0.02833028 80.35583001 -0.0166941 83.5390625 0 C84.47739929 -0.00607269 85.41573608 -0.01214539 86.38250732 -0.0184021 C91.53298663 0.03157771 95.21982216 0.43991877 99.64013672 3.38818359 C102.17647252 7.1926873 102.51692259 9.99797866 101.64013672 14.38818359 C99.78978362 18.4697554 97.42275943 22.17746033 95.01513672 25.95068359 C94.33652588 27.04622559 93.65791504 28.14176758 92.95874023 29.27050781 C91.55038889 31.54328648 90.13698914 33.8117574 88.71386719 36.07519531 C86.20096067 40.08981051 83.74210697 44.13540158 81.2890625 48.18676758 C79.56688182 51.03094528 77.83710811 53.87036675 76.10498047 56.70849609 C72.61246188 62.43248284 69.12586895 68.16006237 65.64013672 73.88818359 C64.47349587 75.80486597 63.30682921 77.72153264 62.14013672 79.63818359 C61.56263672 80.58693359 60.98513672 81.53568359 60.39013672 82.51318359 C2.64013672 177.38818359 -55.10986328 272.26318359 -142.60913086 416.01196289 C-143.77825958 417.932686 -144.94736758 419.85342172 -146.11645508 421.77416992 C-148.99528443 426.50387551 -151.87444857 431.23337657 -154.75439453 435.96240234 C-155.89372863 437.83348928 -157.03305149 439.70458307 -158.17236328 441.57568359 C-159.02266113 442.97185913 -159.02266113 442.97185913 -159.89013672 444.39624023 C-163.52639394 450.3691519 -167.1544004 456.34699862 -170.77722168 462.32806396 C-174.00048001 467.64829876 -177.23425854 472.96208603 -180.46972656 478.27490234 C-182.13971896 481.02557957 -183.79694502 483.78338781 -185.44970703 486.54443359 C-186.3151193 487.9718039 -187.18095874 489.39891537 -188.04736328 490.82568359 C-188.40862305 491.43919678 -188.76988281 492.05270996 -189.14208984 492.68481445 C-192.91650307 498.84078691 -197.27679926 502.59390209 -204.35986328 504.38818359 C-207.89673051 504.67569076 -211.42046549 504.67171988 -214.9675293 504.6628418 C-216.02351318 504.66795273 -217.07949707 504.67306366 -218.16748047 504.67832947 C-221.64963484 504.69220266 -225.13159085 504.69127074 -228.61376953 504.68896484 C-231.03702366 504.69285226 -233.4602771 504.69718702 -235.88352966 504.70195007 C-240.95826428 504.70940684 -246.0329293 504.70912435 -251.10766602 504.70385742 C-257.61341224 504.69805545 -264.11887446 504.71501426 -270.62457371 504.7382021 C-275.62682258 504.7529244 -280.62900275 504.75381331 -285.63126945 504.75069237 C-288.03026836 504.75120607 -290.42927107 504.75645289 -292.82824898 504.76650429 C-296.17955207 504.77882553 -299.53029779 504.77210314 -302.8815918 504.76049805 C-303.87341965 504.76814178 -304.8652475 504.77578552 -305.88713074 504.78366089 C-314.66871781 504.71636737 -314.66871781 504.71636737 -318.35986328 501.38818359 C-319.71154771 494.08113661 -316.71003129 489.76608413 -312.73486328 483.82568359 C-311.53179222 481.95799741 -310.33001346 480.08947829 -309.12939453 478.22021484 C-308.50500488 477.25937988 -307.88061523 476.29854492 -307.23730469 475.30859375 C-304.20900609 470.59799455 -301.31876428 465.80558932 -298.42236328 461.01318359 C-297.24433317 459.07416561 -296.06594597 457.13536452 -294.88720703 455.19677734 C-293.71136713 453.26061504 -292.53558547 451.32441738 -291.35986328 449.38818359 C-284.12216922 437.47174203 -276.86393529 425.56889594 -269.54736328 413.70068359 C-263.58646125 404.03136965 -257.67419849 394.33385837 -251.78793335 384.61904907 C-246.67857369 376.18801648 -241.53512676 367.77900227 -236.35986328 359.38818359 C-230.78384981 350.34627888 -225.24354913 341.28369101 -219.73486328 332.20068359 C-219.37796417 331.6122467 -219.02106506 331.02380981 -218.65335083 330.4175415 C-216.88965277 327.50936226 -215.12638804 324.60092054 -213.36328125 321.69238281 C-205.46687521 308.66899026 -197.53924732 295.66572785 -189.54736328 282.70068359 C-183.90970957 273.55412245 -178.30664586 264.38745054 -172.73486328 255.20068359 C-172.19992249 254.31870804 -172.19992249 254.31870804 -171.6541748 253.41891479 C-169.89020111 250.51027838 -168.12666535 247.60137669 -166.36328125 244.69238281 C-157.80291583 230.57393465 -149.19588754 216.4855127 -140.53149414 202.43066406 C-135.24647958 193.84909393 -130.01058714 185.23862098 -124.78793335 176.61904907 C-119.67857369 168.18801648 -114.53512676 159.77900227 -109.35986328 151.38818359 C-103.78384981 142.34627888 -98.24354913 133.28369101 -92.73486328 124.20068359 C-92.19951462 123.31802826 -92.19951462 123.31802826 -91.65335083 122.4175415 C-89.88965277 119.50936226 -88.12638804 116.60092054 -86.36328125 113.69238281 C-78.46687521 100.66899026 -70.53924732 87.66572785 -62.54736328 74.70068359 C-56.9097058 65.55411634 -51.3071915 56.38712377 -45.73486328 47.20068359 C-45.20540604 46.32817963 -45.20540604 46.32817963 -44.66525269 45.43804932 C-40.88839222 39.21398442 -37.1168691 32.98673047 -33.35205078 26.75537109 C-32.10468686 24.69545594 -30.85729258 22.63555916 -29.60986328 20.57568359 C-29.04960449 19.6453833 -28.4893457 18.71508301 -27.91210938 17.7565918 C-26.41510582 15.2871073 -24.89079094 12.83672024 -23.35986328 10.38818359 C-22.95832031 9.70191895 -22.55677734 9.0156543 -22.14306641 8.30859375 C-17.03470297 0.17218626 -8.82019523 -0.05732956 0 0 Z " fill="#000000" transform="translate(318.35986328125,3.61181640625)"/>
<path d="M0 0 C1.49641273 -0.005476 1.49641273 -0.005476 3.02305603 -0.01106262 C6.30509715 -0.01913765 9.5866399 -0.00558495 12.86865234 0.0090332 C15.15595499 0.00955209 17.44325809 0.00903328 19.7305603 0.00752258 C24.51689335 0.00761216 29.30305747 0.01801469 34.08935547 0.03613281 C40.22398253 0.05884498 46.35836345 0.05935786 52.49302101 0.05261517 C57.21304512 0.04927418 61.93301311 0.05590733 66.65302658 0.0657444 C68.91525351 0.06959251 71.17748669 0.07074623 73.43971634 0.06915855 C76.59925494 0.06878773 79.75847761 0.08141253 82.91796875 0.09765625 C83.85212112 0.09517883 84.7862735 0.09270142 85.74873352 0.09014893 C91.39852039 0.13650862 95.32073832 0.7449513 100.14208984 3.87231445 C102.83892047 7.86761908 102.58930729 11.69488607 101.82958984 16.37231445 C100.0982738 20.33922756 97.76005232 23.80110217 95.32958984 27.37231445 C93.94659423 29.48983477 92.56513677 31.60836031 91.18505859 33.7277832 C90.46624512 34.81752441 89.74743164 35.90726562 89.00683594 37.0300293 C85.43650868 42.51082994 82.04683359 48.10024444 78.64208984 53.68481445 C73.62366294 61.86619624 68.55328387 70.01038802 63.40698242 78.11181641 C59.15141027 84.82673585 54.98731265 91.59647672 50.82958984 98.37231445 C45.7465494 106.65614165 40.61907638 114.90699637 35.40771484 123.1105957 C31.1519744 129.82597108 26.98758559 136.5960861 22.82958984 143.37231445 C17.67268408 151.77591328 12.47244371 160.14783668 7.19018555 168.47314453 C3.59450566 174.1455192 0.04631557 179.84588071 -3.48291016 185.55981445 C-10.04067661 196.17330117 -16.63323174 206.76439591 -23.26660156 217.33081055 C-25.20584825 220.42892996 -27.1318037 223.53505993 -29.05712891 226.6418457 C-30.30280387 228.635597 -31.54888212 230.6290964 -32.79541016 232.62231445 C-33.36316162 233.54520264 -33.93091309 234.46809082 -34.51586914 235.41894531 C-40.72888594 245.29969722 -40.72888594 245.29969722 -46.03791142 246.95435715 C-48.29152704 247.39605266 -50.34606307 247.50390411 -52.64195251 247.51275635 C-53.5321257 247.51846649 -54.42229889 247.52417664 -55.33944702 247.53005981 C-56.30838898 247.53117767 -57.27733093 247.53229553 -58.27563477 247.53344727 C-59.30206589 247.53841217 -60.32849701 247.54337708 -61.3860321 247.54849243 C-64.78161285 247.56309824 -68.17714691 247.56991262 -71.57275391 247.57543945 C-73.93160504 247.58119117 -76.29045615 247.5869489 -78.64930725 247.5927124 C-83.59473895 247.60321717 -88.54015442 247.60906362 -93.4855957 247.61254883 C-99.82547443 247.61803957 -106.16513904 247.64208238 -112.50495052 247.67052078 C-117.37680187 247.68913209 -122.24860141 247.69435191 -127.12048531 247.6958847 C-129.45808651 247.69891398 -131.79568674 247.70695169 -134.1332531 247.72006989 C-137.40093243 247.73710228 -140.66808545 247.73525706 -143.93579102 247.72875977 C-144.90270874 247.73797455 -145.86962646 247.74718933 -146.86584473 247.75668335 C-151.78046965 247.72603328 -155.20777161 247.62304848 -159.17041016 244.37231445 C-161.47977407 241.52409896 -162.24329079 240.20004028 -161.91894531 236.51635742 C-161.14524148 233.26659946 -160.11653028 231.17792491 -158.31884766 228.38012695 C-157.72265625 227.44040039 -157.12646484 226.50067383 -156.51220703 225.5324707 C-155.86316406 224.53086914 -155.21412109 223.52926758 -154.54541016 222.49731445 C-153.16754467 220.33341832 -151.78994789 218.16935108 -150.41259766 216.00512695 C-149.35250488 214.3504541 -149.35250488 214.3504541 -148.27099609 212.66235352 C-145.03224877 207.58967116 -141.85263941 202.48056332 -138.67041016 197.37231445 C-137.42073254 195.372113 -136.1707315 193.37211358 -134.92041016 191.37231445 C-134.30166016 190.38231445 -133.68291016 189.39231445 -133.04541016 188.37231445 C-106.17041016 145.37231445 -79.29541016 102.37231445 -52.42041016 59.37231445 C-51.49156006 57.88610596 -51.49156006 57.88610596 -50.54394531 56.36987305 C-49.29894526 54.37793785 -48.05382882 52.38607539 -46.80859375 50.39428711 C-42.9478695 44.2185436 -39.09160427 38.04004361 -35.23876953 31.859375 C-33.34890306 28.83297701 -31.45148704 25.81141838 -29.55322266 22.7902832 C-27.48921251 19.50151995 -25.45838456 16.19859917 -23.47509766 12.8605957 C-22.87930908 11.87857178 -22.87930908 11.87857178 -22.27148438 10.87670898 C-21.26734387 9.21976582 -20.28043153 7.55241316 -19.29541016 5.8840332 C-14.15871539 -0.18746447 -7.39201734 -0.06074874 0 0 Z " fill="#000000" transform="translate(410.17041015625,260.627685546875)"/>
</svg>
