<?xml version="1.0" encoding="UTF-8"?>
<svg version="1.1" xmlns="http://www.w3.org/2000/svg" width="520" height="520">
<path d="M0 0 C171.6 0 343.2 0 520 0 C520 171.6 520 343.2 520 520 C348.4 520 176.8 520 0 520 C0 348.4 0 176.8 0 0 Z " fill="#4BBD00" transform="translate(0,0)"/>
<path d="M0 0 C4.57680448 2.37641771 6.45677458 4.13341531 8 9 C8.24914551 11.38748169 8.24914551 11.38748169 8.25195312 13.89111328 C8.25956665 14.83624786 8.26718018 15.78138245 8.27502441 16.75515747 C8.27707886 17.76665863 8.2791333 18.77815979 8.28125 19.8203125 C8.31791951 21.98702099 8.35706139 24.15368878 8.3984375 26.3203125 C8.45621603 29.71749406 8.49999627 33.11206182 8.50097656 36.50976562 C8.0186393 51.75159646 8.0186393 51.75159646 14.80859375 64.66796875 C16.51012144 66.14597135 18.23706426 67.59581136 20 69 C47.90574103 101.56417769 60.59733238 149.9382725 58 192 C56.90338183 204.47786394 54.65099103 218.69801794 49 230 C48.04266405 237.08913328 48.73740229 242.01142362 53.0859375 247.73046875 C53.71757812 248.47941406 54.34921875 249.22835937 55 250 C55.73476563 250.88300781 56.46953125 251.76601563 57.2265625 252.67578125 C60.84261193 256.85419288 64.0013134 260.48865985 69 263 C72.2474883 263.23196345 75.06573966 263.20797448 78.24609375 262.5 C88.7593355 260.59121285 101.99843952 260.94885398 111.41015625 266.39453125 C116.53129973 270.06576841 120.2412354 273.72119346 121.37890625 280.13671875 C122.12283782 290.47261911 117.08577273 299.53059905 111.0390625 307.625 C104.21199913 314.9815091 94.67622703 319.38642403 84.703125 320.18359375 C62.81761486 320.7760359 45.55740058 308.35634435 30.00268555 294.13061523 C25.67460775 289.97165513 22.6481917 285.35445778 20 280 C16.30238913 281.58469037 13.68847557 283.91018549 10.6875 286.5625 C-4.86096447 299.83281003 -23.16762414 307.72006478 -43 312 C-44.13824219 312.26425781 -45.27648437 312.52851563 -46.44921875 312.80078125 C-53.1779481 314.3247095 -59.93980474 315.53608892 -66.75 316.625 C-67.51803955 316.74818604 -68.2860791 316.87137207 -69.07739258 316.99829102 C-80.33291423 318.7407474 -91.43667922 319.24109271 -102.8125 319.25 C-103.58834442 319.25067474 -104.36418884 319.25134949 -105.1635437 319.25204468 C-128.40253925 319.22001814 -150.78614012 315.97024321 -172 306 C-172.62116699 305.71253906 -173.24233398 305.42507813 -173.88232422 305.12890625 C-187.25692091 298.89583339 -198.23810489 291.15001479 -209 281 C-209.68835938 280.37609375 -210.37671875 279.7521875 -211.0859375 279.109375 C-233.6300291 257.90188962 -245.69862772 222.76883314 -246.89111328 192.50488281 C-246.92528116 191.11361984 -246.95102494 189.72212969 -246.96923828 188.33056641 C-246.99151911 186.64252857 -247.02820194 184.95466068 -247.07373047 183.26708984 C-247.89835213 152.39755704 -242.18813409 120.79205532 -227 93.5625 C-222.72430685 85.17333769 -226.78255361 74.94778877 -228.9375 66.3125 C-229.20240234 65.22388672 -229.46730469 64.13527344 -229.74023438 63.01367188 C-230.81064259 58.64438772 -231.88766767 54.29311464 -233.1953125 49.98828125 C-234.35496721 45.68179651 -234.05110666 43.3445742 -233 39 C-231 36 -231 36 -228 34 C-220.00818355 33.28455763 -213.08547025 35.32923365 -205.4375 37.5 C-194.88002776 40.75152567 -194.88002776 40.75152567 -184 41 C-181.06685358 39.41175384 -181.06685358 39.41175384 -178.5 37.0625 C-160.63523331 22.75268689 -138.62986563 13.96120831 -116 11 C-115.16726562 10.88785156 -114.33453125 10.77570313 -113.4765625 10.66015625 C-91.26452049 8.16557307 -65.31794358 9.84102821 -45 20 C-39.66643069 20.60431275 -36.34672859 18.89460228 -31.95703125 16.1328125 C-31.30675461 15.73802704 -30.65647797 15.34324158 -29.98649597 14.93649292 C-27.92068652 13.67827188 -25.86673892 12.40200489 -23.8125 11.125 C-22.42065616 10.27353812 -21.02808449 9.42326477 -19.63476562 8.57421875 C-4.6966037 -0.55254161 -4.6966037 -0.55254161 0 0 Z " fill="#FDFEFD" transform="translate(343,102)"/>
<path d="M0 0 C1.24394531 0.42410156 2.48789062 0.84820312 3.76953125 1.28515625 C27.97606639 9.99278918 45.8714725 26.44423167 58 49 C58 49.66 58 50.32 58 51 C58.74685059 50.72736328 59.49370117 50.45472656 60.26318359 50.17382812 C63.6325961 48.94591576 67.00376489 47.72289901 70.375 46.5 C71.550625 46.07074219 72.72625 45.64148438 73.9375 45.19921875 C75.05898438 44.79316406 76.18046875 44.38710937 77.3359375 43.96875 C78.37282715 43.59169922 79.4097168 43.21464844 80.47802734 42.82617188 C83 42 83 42 85 42 C85 43.65 85 45.3 85 47 C77.47845271 50.19198847 69.83455774 52.69138424 62 55 C62.65585189 58.60992379 62.65585189 58.60992379 64 62 C71.26 61.67 78.52 61.34 86 61 C85.67 62.32 85.34 63.64 85 65 C82.79248152 65.33868777 80.58394089 65.67071689 78.375 66 C77.14523437 66.185625 75.91546875 66.37125 74.6484375 66.5625 C71.3833973 66.95402516 68.28287549 67.08080924 65 67 C65.33 67.7425 65.66 68.485 66 69.25 C67 72 67 72 67 76 C68.2375 76.12375 69.475 76.2475 70.75 76.375 C76.53953599 77.01212597 82.26376296 78.00028356 88 79 C88 80.65 88 82.3 88 84 C81.33333333 82.66666667 74.66666667 81.33333333 68 80 C68.16153564 80.55993652 68.32307129 81.11987305 68.48950195 81.69677734 C69.43149498 85.9467832 69.18462092 90.28910587 69.1875 94.625 C69.19974609 95.57246094 69.21199219 96.51992187 69.22460938 97.49609375 C69.25691371 113.23907541 64.29967826 126.43555876 53.2421875 137.828125 C52.50226563 138.54484375 51.76234375 139.2615625 51 140 C50.36320313 140.63421875 49.72640625 141.2684375 49.0703125 141.921875 C24.71588223 164.76046936 -16.02162093 168.2225269 -47.625 168.25 C-48.67998688 168.25101212 -48.67998688 168.25101212 -49.75628662 168.25204468 C-70.45456151 168.22060084 -89.82413819 165.58835023 -107 153 C-107.71800781 152.47792969 -108.43601563 151.95585937 -109.17578125 151.41796875 C-120.3994861 142.46079847 -127.8381075 127.77327209 -129.625 113.625 C-130.13248126 109.09266733 -130.03323998 104.55387683 -130 100 C-130.75676025 100.36351562 -130.75676025 100.36351562 -131.52880859 100.734375 C-133.80897784 101.82692327 -136.09193169 102.91352376 -138.375 104 C-139.56609375 104.57234375 -139.56609375 104.57234375 -140.78125 105.15625 C-141.54179687 105.5171875 -142.30234375 105.878125 -143.0859375 106.25 C-143.7876709 106.58515625 -144.4894043 106.9203125 -145.21240234 107.265625 C-147 108 -147 108 -149 108 C-149.495 105.525 -149.495 105.525 -150 103 C-147.23174812 101.82685974 -144.46071514 100.66129785 -141.6875 99.5 C-140.90181641 99.16613281 -140.11613281 98.83226562 -139.30664062 98.48828125 C-138.54931641 98.17246094 -137.79199219 97.85664063 -137.01171875 97.53125 C-135.96697388 97.09135742 -135.96697388 97.09135742 -134.90112305 96.64257812 C-133 96 -133 96 -130 96 C-130 93.03 -130 90.06 -130 87 C-140.395 87.495 -140.395 87.495 -151 88 C-151 87.01 -151 86.02 -151 85 C-148.65061112 83.82530556 -147.04926795 83.79965111 -144.4296875 83.68359375 C-143.53378906 83.64169922 -142.63789063 83.59980469 -141.71484375 83.55664062 C-140.77769531 83.51732422 -139.84054688 83.47800781 -138.875 83.4375 C-137.93011719 83.39431641 -136.98523438 83.35113281 -136.01171875 83.30664062 C-133.67462908 83.20040928 -131.3374317 83.09836824 -129 83 C-128.67 80.36 -128.34 77.72 -128 75 C-136.25 74.34 -144.5 73.68 -153 73 C-153 71.02 -153 69.04 -153 67 C-149.60383513 67.47683572 -146.20813132 67.95688069 -142.8125 68.4375 C-141.37293945 68.63956055 -141.37293945 68.63956055 -139.90429688 68.84570312 C-138.50727539 69.04389648 -138.50727539 69.04389648 -137.08203125 69.24609375 C-136.22843018 69.36654053 -135.3748291 69.4869873 -134.49536133 69.61108398 C-131.97933036 70.00322148 -129.49302336 70.48265373 -127 71 C-126.835 69.845 -126.67 68.69 -126.5 67.5 C-121.57133021 45.33846348 -103.75479492 23.99437446 -85.13525391 11.77636719 C-76.22885242 6.22346001 -67.09173828 1.97502111 -57 -1 C-55.99839844 -1.31839844 -54.99679688 -1.63679687 -53.96484375 -1.96484375 C-36.87590727 -6.56001006 -16.65655593 -5.8820181 0 0 Z " fill="#4BBD01" transform="translate(276,142)"/>
</svg>
